<?xml version="1.0" encoding="iso-8859-1"?>
<!-- Uploaded to: SVG Repo, www.svgrepo.com, Generator: SVG Repo Mixer Tools -->
<svg fill="#000000" height="800px" width="800px" version="1.1" id="Layer_1" xmlns="http://www.w3.org/2000/svg" xmlns:xlink="http://www.w3.org/1999/xlink" 
	 viewBox="0 0 511.999 511.999" xml:space="preserve">
<g transform="translate(0 -1)">
	<g>
		<g>
			<path d="M338.832,46.167c-14.618-14.618-42.82-18.321-57.233-19.26V9.533c0-4.719-3.814-8.533-8.533-8.533h-34.133
				c-4.719,0-8.533,3.814-8.533,8.533v17.374c-14.421,0.939-42.615,4.642-57.233,19.26c-7.236,7.228-7.799,14.575-7.006,19.465
				c0.734,4.514,2.935,8.576,5.726,12.169h24.38c18.756,0,43.529,9.634,59.733,28.169c16.204-18.536,40.976-28.17,59.732-28.17
				h24.38c2.79-3.593,4.992-7.654,5.726-12.169C346.632,60.742,346.068,53.395,338.832,46.167z"/>
			<path d="M307.198,163.133c0-17.041,7.279-45.389,14.711-68.267h-6.178c-13.295,0-39.287,8.115-52.429,29.901
				c-1.545,2.56-4.309,4.122-7.305,4.122c-2.995,0-5.76-1.562-7.305-4.122c-13.141-21.786-39.134-29.901-52.429-29.901h-6.178
				c7.433,22.878,14.711,51.226,14.711,68.267c0,8.346-1.493,10.573-4.762,15.462c-8.294,12.407-20.838,31.155-20.796,138.948
				l17.067,179.2c0.316,3.362,2.594,6.212,5.794,7.279c1.092,0.367,27.221,8.977,53.897,8.977c26.676,0,52.796-8.61,53.897-8.977
				c3.2-1.067,5.478-3.917,5.794-7.279l17.109-180.011c0-106.982-12.544-125.73-20.838-138.138
				C308.692,173.706,307.198,171.479,307.198,163.133z"/>
		</g>
	</g>
</g>
</svg>